<?xml version="1.0" encoding="utf-8"?>
<!-- Generator: Adobe Illustrator 16.0.0, SVG Export Plug-In . SVG Version: 6.00 Build 0)  -->
<!DOCTYPE svg PUBLIC "-//W3C//DTD SVG 1.1//EN" "http://www.w3.org/Graphics/SVG/1.1/DTD/svg11.dtd">
<svg version="1.1" id="Layer_1" xmlns="http://www.w3.org/2000/svg" xmlns:xlink="http://www.w3.org/1999/xlink" x="0px" y="0px"
	 width="1400px" height="980px" viewBox="0 0 1400 980" enable-background="new 0 0 1400 980" xml:space="preserve">
<rect fill="#BBD6CB" width="1399" height="633"/>
<polygon fill="#99BAAC" points="0,456.245 -0.125,600 1399,600 1399,423 1290.879,476.412 1174.896,400.902 1046.448,524 
	941.957,461.824 896.351,488.807 805.798,445.123 743.432,524.207 597.809,422.871 550.714,470.931 438.288,444.851 
	403.783,470.931 310.54,310.351 176.08,445.123 124.729,332.871 53.107,422.871 24.958,400.09 "/>
<polygon opacity="0.7" fill="#7FA091" points="1398.875,485.797 1399,598 -0.125,598 -0.125,459.849 107.996,501.538 
	223.979,442.601 352.427,538.681 456.918,490.151 502.524,511.212 593.077,477.116 655.443,538.843 801.066,459.748 848.161,497.26 
	960.588,476.904 995.092,497.26 1088.335,371.924 1222.795,477.116 1274.146,389.501 1345.768,459.748 1373.916,441.967 "/>
<path opacity="0.7" fill="#FFFFFF" d="M1239.142,300.388c-1.386,0-2.626,0.712-3.479,1.836c-1.123-2.369-3.205-4.027-5.632-4.258
	c-1.678-7.72-7.654-13.43-14.771-13.43c-2.87,0-5.554,0.93-7.845,2.544c-1.453-4.539-5.191-7.771-9.574-7.771
	c-4.695,0-8.649,3.708-9.848,8.758c-0.726,0.308-1.406,0.724-2.029,1.229c-0.999-1.148-2.646-1.857-4.155-1.857
	c-3.054,0-5.81,2.898-5.81,6.474c0,0.016,0,0.032,0,0.048c-2,0.336-4.667,2.434-5.61,5.293c-0.157-0.019-0.177-0.028-0.338-0.028
	c-2.571,0-4.587,2.376-4.587,5.387c0,3.012,2.156,5.387,4.727,5.387c0.002,0,0.002,0,0.002,0s-0.004,0.193-0.004,0.258
	c0,6.841,4.738,12.419,10.582,12.419c3.658,0,6.883-2.285,8.783-5.589c1.408,1.858,3.463,2.912,5.753,2.912c0.048,0,0.095,0,0.142,0
	c2.592,3,6.119,4.871,10.009,4.871c3.91,0,7.454-1.762,10.05-4.723c4.529-0.084,8.577-2.447,11.322-6.194
	c0.811,0.376,1.692,0.601,2.617,0.601c2.857,0,5.32-1.969,6.448-4.817c0.839,0.956,1.983,1.55,3.246,1.55
	c2.571,0,4.657-2.439,4.657-5.45C1243.799,302.827,1241.713,300.388,1239.142,300.388z"/>
<path opacity="0.7" fill="#FFFFFF" d="M694.069,203.971c-4.425,0-8.387,1.36-11.112,3.508c-3.586-4.526-10.234-7.694-17.988-8.136
	c-5.358-14.75-24.447-25.66-47.178-25.66c-9.166,0-17.738,1.777-25.059,4.861c-4.64-8.672-16.579-14.847-30.582-14.847
	c-14.999,0-27.627,7.084-31.455,16.734c-2.316,0.589-4.49,1.383-6.482,2.348c-3.188-2.193-7.557-3.548-12.379-3.548
	c-9.756,0-17.665,5.538-17.665,12.37c0,0.031,0.003,0.061,0.003,0.092c-8.621,0.642-15.801,4.651-18.814,10.114
	c-0.501-0.036-1.009-0.054-1.523-0.054c-8.215,0-14.875,4.871-14.875,10.624c0,5.754,6.66,10.624,14.875,10.624
	c0.003,0,0.006,0,0.008,0c-0.002,0-0.014,0.037-0.014,0.16c0,13.07,15.133,23.563,33.799,23.563
	c11.686,0,21.984-4.205,28.055-10.519c4.499,3.552,11.062,5.767,18.375,5.767c0.152,0,0.303-0.019,0.454-0.021
	c8.278,5.604,19.544,9.053,31.968,9.053c12.49,0,23.81-3.494,32.1-9.151c14.469-0.161,27.397-4.741,36.166-11.899
	c2.588,0.719,5.406,1.117,8.359,1.117c9.13,0,16.996-3.777,20.598-9.221c2.68,1.826,6.334,2.954,10.368,2.954
	c8.216,0,14.876-4.664,14.876-10.417S702.285,203.971,694.069,203.971z"/>
<path opacity="0.7" fill="#FFFFFF" d="M1161.013,108.388c-2.315,0-4.39,0.712-5.815,1.836c-1.877-2.369-5.357-4.027-9.415-4.258
	c-2.805-7.72-12.796-13.43-24.692-13.43c-4.798,0-9.284,0.93-13.115,2.544c-2.429-4.539-8.678-7.771-16.007-7.771
	c-7.85,0-14.459,3.708-16.463,8.758c-1.212,0.308-2.351,0.724-3.393,1.229c-1.669-1.148-4.149-1.857-6.673-1.857
	c-5.105,0-9.439,2.898-9.439,6.474c0,0.016,0,0.032,0,0.048c-4,0.336-8.075,2.434-9.652,5.293c-0.263-0.019-0.432-0.028-0.701-0.028
	c-4.299,0-7.736,2.376-7.736,5.387c0,3.012,3.535,5.387,7.834,5.387c0.002,0,0.003,0,0.003,0s-0.006,0.193-0.006,0.258
	c0,6.841,7.921,12.419,17.69,12.419c6.115,0,11.506-2.285,14.684-5.589c2.354,1.858,5.789,2.912,9.617,2.912
	c0.079,0,0.158,0,0.237,0c4.333,3,10.229,4.871,16.731,4.871c6.537,0,12.462-1.762,16.801-4.723
	c7.572-0.084,14.34-2.447,18.929-6.194c1.354,0.376,2.829,0.601,4.375,0.601c4.778,0,8.896-1.969,10.78-4.817
	c1.402,0.956,3.315,1.55,5.427,1.55c4.3,0,7.786-2.439,7.786-5.45C1168.799,110.827,1165.312,108.388,1161.013,108.388z"/>
<g>
	<polygon fill="#513E25" points="-0.125,610 176.08,316.58 403.783,473.393 513.918,441.021 797.702,610 	"/>
	<polygon fill="#513E25" points="1400,610 1400.498,316.58 1172.795,473.393 1062.66,441.021 778.876,610 	"/>
	<polygon fill="#604B31" points="182.23,335.469 415.432,560.123 398.789,490 	"/>
	<polygon fill="#604B31" points="514.848,462.931 612.573,516 568,516 	"/>
	<polygon fill="#604B31" points="343.506,516.207 392.296,572 357,572 	"/>
	<polygon fill="#604B31" points="1385.731,348.598 1174.207,490 1162.536,525.648 	"/>
	<polygon fill="#604B31" points="1068.945,453.824 1023.951,483 1041,483 	"/>
	<polygon fill="#604B31" points="986.023,503 906.934,552.091 952.43,571.827 1012.281,503 	"/>
</g>
<g>
	<path fill="#074E7B" d="M-0.125,601.072c0,0,96.483-77.68,206.021-52.174c109.538,25.506,166.396,104.236,298.894,30.319
		c87.508-48.819,204.216-58.905,340.8-12.799c136.583,46.107,179.865,43.142,267.767,0.959c0,0,79.291-58.871,160.43-2.954
		C1354.923,620.34,1400,590.898,1400,590.898V981H0L-0.125,601.072z"/>
	<path fill="#237AA5" d="M1400,624.942c0,0-105.25-97.104-206.021-48.895c-135.079,64.623-201.526,52.317-298.893,28.414
		c-97.368-23.902-204.216-55.204-340.8-11.994s-179.866,40.432-267.767,0.898c0,0-67.785-31.838-160.43-2.769
		C34.212,619.426-0.125,615.409-0.125,615.409V981h1400L1400,624.942z"/>
	<path fill="#074E7B" d="M-0.125,650.407c0,0,96.483-67.592,206.021-45.397c109.538,22.193,156.93,88.999,298.894,26.382
		c91.104-40.185,204.216-51.257,340.8-11.137c136.583,40.12,179.865,37.54,267.767,0.835c0,0,79.291-51.228,160.43-2.571
		C1354.923,667.174,1400,641.556,1400,641.556V981H0L-0.125,650.407z"/>
	<path fill="#1D7091" d="M1400,669.275c0,0-100.019-76.624-209.556-55.696c-109.538,20.927-212.315,92.127-309.682,71.2
		c-97.367-20.927-189.892-81.766-326.476-43.936s-206.336,86.129-273.952,28.113c0,0-73.106-75.63-154.244-29.75
		C44.952,685.084-0.125,660.929-0.125,660.929V981h1400L1400,669.275z"/>
	<path fill="#074E7B" d="M-0.125,725.056c0,0,96.483-52.331,206.021-35.147c109.538,17.182,166.396,70.22,298.894,20.425
		c87.508-32.889,204.216-39.683,340.8-8.622c136.583,31.061,179.865,29.063,267.767,0.646c0,0,79.291-39.659,160.43-1.99
		C1354.923,738.035,1400,718.201,1400,718.201V981H0L-0.125,725.056z"/>
	<path fill="#54BAE2" d="M1273.785,700.366c-81.139-37.669-160.43,1.99-160.43,1.99c-87.901,28.418-131.184,30.415-267.767-0.646
		c-136.584-31.061-253.292-24.267-340.8,8.622c-132.497,49.795-189.355-3.243-298.894-20.425
		C96.358,672.725-0.125,725.056-0.125,725.056l0.011,46.754c0.489-0.265,96.75-75.624,206.009-58.484
		c109.538,17.182,177.246,54.592,309.742,4.797c87.508-32.888,193.367-24.054,329.951,7.006
		c93.835,21.339,178.389,3.903,271.83-7.006c42.569-4.97,79.787-36.427,141.993-9.608c82.19,35.435,140.588,33.105,140.588,33.105
		v-23.418C1400,718.201,1354.923,738.035,1273.785,700.366z"/>
	<ellipse fill="#54BAE2" cx="95.675" cy="794.004" rx="6.081" ry="5.934"/>
	<ellipse fill="#54BAE2" cx="150.405" cy="856.399" rx="25.676" ry="25.052"/>
	<ellipse fill="#54BAE2" cx="562.567" cy="805.212" rx="5.406" ry="5.274"/>
	<ellipse fill="#54BAE2" cx="734.972" cy="784.67" rx="26.459" ry="25.816"/>
	<ellipse fill="#54BAE2" cx="906.933" cy="815.537" rx="10.583" ry="10.325"/>
	<ellipse fill="#54BAE2" cx="1223.825" cy="825.426" rx="26.123" ry="25.489"/>
	<ellipse fill="#54BAE2" cx="714.594" cy="904.315" rx="6.081" ry="5.933"/>
	<ellipse fill="#54BAE2" cx="403.783" cy="832.242" rx="33.108" ry="32.303"/>
	<ellipse fill="#54BAE2" cx="433.513" cy="916.182" rx="6.082" ry="5.935"/>
	<ellipse fill="#FFFFFF" cx="421.513" cy="825.44" rx="6.082" ry="5.935"/>
	<ellipse fill="#FFFFFF" cx="749.513" cy="784.461" rx="6.082" ry="5.934"/>
	<ellipse fill="#FFFFFF" cx="1134.513" cy="872.274" rx="6.082" ry="5.935"/>
	<ellipse fill="#54BAE2" cx="310.54" cy="942.553" rx="33.108" ry="32.304"/>
	<ellipse fill="#54BAE2" cx="941.958" cy="932.334" rx="10.472" ry="10.219"/>
	<ellipse fill="#54BAE2" cx="1107.5" cy="877.614" rx="27.365" ry="26.701"/>
	<ellipse fill="#54BAE2" cx="1256.03" cy="916.182" rx="6.082" ry="5.935"/>
	<ellipse fill="#54BAE2" cx="1367.972" cy="866.736" rx="27.027" ry="26.371"/>
	<ellipse fill="#54BAE2" cx="65.27" cy="910.249" rx="12.163" ry="11.867"/>
	<ellipse fill="#54BAE2" cx="136.891" cy="944.201" rx="12.162" ry="11.867"/>
</g>
<circle fill="#F4BA14" cx="739.443" cy="286.528" r="169.481"/>
<path opacity="0.7" fill="#FFFFFF" d="M260.069,176.209c-4.425,0-8.387,1.943-11.112,5.009
	c-3.586-6.463-10.235-10.987-17.988-11.618c-5.359-21.062-24.448-36.642-47.179-36.642c-9.166,0-17.738,2.537-25.059,6.941
	c-4.639-12.384-16.579-21.202-30.582-21.202c-14.999,0-27.626,10.117-31.455,23.896c-2.316,0.841-4.49,1.975-6.483,3.353
	c-3.188-3.132-7.557-5.067-12.379-5.067c-9.755,0-17.665,7.909-17.665,17.665c0,0.044,0.003,0.087,0.003,0.131
	c-8.621,0.916-15.8,6.642-18.814,14.442c-0.501-0.051-1.009-0.077-1.523-0.077c-8.215,0-14.875,6.764-14.875,14.98
	S31.619,203,39.834,203c0.003,0,0.005,0,0.008,0c-0.002,0-0.013,0.244-0.013,0.42c0,18.665,15.132,33.745,33.798,33.745
	c11.686,0,21.985-5.958,28.055-14.974c4.499,5.073,11.062,8.26,18.375,8.26c0.152,0,0.302-0.016,0.454-0.018
	c8.278,8.004,19.543,12.934,31.968,12.934c12.49,0,23.81-4.985,32.1-13.064c14.469-0.23,27.397-6.769,36.167-16.991
	c2.587,1.026,5.406,1.596,8.359,1.596c9.13,0,16.996-5.394,20.598-13.167c2.68,2.607,6.333,4.219,10.368,4.219
	c8.215,0,14.875-6.66,14.875-14.875C274.945,182.869,268.285,176.209,260.069,176.209z"/>
<path opacity="0.7" fill="#FFFFFF" d="M1000.069,298.971c-4.425,0-8.387,1.36-11.112,3.508c-3.586-4.526-10.234-7.694-17.988-8.136
	c-5.358-14.75-24.447-25.66-47.178-25.66c-9.166,0-17.738,1.777-25.059,4.861c-4.64-8.672-16.579-14.847-30.582-14.847
	c-14.999,0-27.627,7.084-31.455,16.734c-2.316,0.589-4.49,1.383-6.482,2.348c-3.188-2.193-7.557-3.548-12.379-3.548
	c-9.756,0-17.665,5.538-17.665,12.37c0,0.031,0.003,0.061,0.003,0.092c-8.621,0.642-15.801,4.651-18.814,10.114
	c-0.501-0.036-1.009-0.054-1.523-0.054c-8.215,0-14.875,4.871-14.875,10.624c0,5.754,6.66,10.624,14.875,10.624
	c0.003,0,0.006,0,0.008,0c-0.002,0-0.014,0.037-0.014,0.16c0,13.07,15.133,23.563,33.799,23.563
	c11.686,0,21.984-4.205,28.055-10.519c4.499,3.552,11.062,5.767,18.375,5.767c0.152,0,0.303-0.019,0.454-0.021
	c8.278,5.604,19.544,9.053,31.968,9.053c12.49,0,23.81-3.494,32.1-9.151c14.469-0.161,27.397-4.741,36.166-11.899
	c2.588,0.719,5.406,1.117,8.359,1.117c9.13,0,16.996-3.777,20.598-9.221c2.68,1.826,6.334,2.954,10.368,2.954
	c8.216,0,14.876-4.664,14.876-10.417S1008.285,298.971,1000.069,298.971z"/>
<path opacity="0.8" fill="#FFFFFF" d="M1399,280.438c-1.551-0.198-3.132-0.301-4.736-0.301c-6.993,0-13.532,1.936-19.117,5.295
	c-3.539-9.447-12.648-16.174-23.33-16.174c-11.443,0-21.076,7.718-23.997,18.23c-1.767,0.642-3.426,1.507-4.945,2.558
	c-2.433-2.39-5.765-3.866-9.443-3.866c-7.442,0-13.477,6.034-13.477,13.476c0,0.034,0.002,0.066,0.002,0.1
	c-6.577,0.699-12.054,5.067-14.353,11.018c-0.383-0.039-0.771-0.059-1.163-0.059c-6.267,0-11.348,5.375-11.348,11.643
	S1278.174,334,1284.44,334c0.003,0,0.005,0,0.007,0c-0.002,0-0.011-0.028-0.011,0.106c0,14.239,11.544,25.636,25.784,25.636
	c8.915,0,16.771-4.598,21.402-11.477c3.433,3.87,8.439,6.274,14.019,6.274c0.116,0,0.23-0.025,0.347-0.027
	c6.314,6.106,14.909,9.861,24.387,9.861c9.529,0,18.164-3.807,24.488-9.97c1.399-0.022,2.779-0.127,4.137-0.3V280.438z"/>
<g>
	<path fill="#513E25" d="M438.288,436.851l-80.091-11.393l-2.224-26.358l104.75-91.42l30.445,4.331l-14.292,100.465l22.013,3.131
		l-4.164,29.273l-22.013-3.132l-5.03,35.362l-34.426-4.897L438.288,436.851z M442.452,407.579l7.262-51.052l-50.82,44.856
		L442.452,407.579z"/>
</g>
<g>
	<path fill="#513E25" d="M1120.073,423.299l-108.927-21.901l-0.982-36.317l150.801-117.14l41.405,8.325l-27.474,136.636
		l29.938,6.019l-8.004,39.812l-29.938-6.02l-9.67,48.093l-46.82-9.413L1120.073,423.299z M1128.077,383.488l13.961-69.433
		l-73.201,57.521L1128.077,383.488z"/>
</g>
<path opacity="0.7" fill="#FFFFFF" d="M417.142,390.388c-1.385,0-2.626,0.712-3.479,1.836c-1.123-2.369-3.205-4.027-5.632-4.258
	c-1.678-7.72-7.654-13.43-14.771-13.43c-2.87,0-5.553,0.93-7.845,2.544c-1.453-4.539-5.191-7.771-9.575-7.771
	c-4.695,0-8.649,3.708-9.848,8.758c-0.725,0.308-1.406,0.724-2.029,1.229c-0.999-1.148-2.645-1.857-4.155-1.857
	c-3.054,0-5.81,2.898-5.81,6.474c0,0.016,0,0.032,0,0.048c-2,0.336-4.667,2.434-5.61,5.293c-0.157-0.019-0.176-0.028-0.338-0.028
	c-2.571,0-4.587,2.376-4.587,5.387c0,3.012,2.156,5.387,4.727,5.387c0.001,0,0.001,0,0.002,0c-0.001,0-0.004,0.193-0.004,0.258
	c0,6.841,4.738,12.419,10.582,12.419c3.658,0,6.882-2.285,8.783-5.589c1.408,1.858,3.463,2.912,5.752,2.912c0.047,0,0.095,0,0.142,0
	c2.592,3,6.119,4.871,10.008,4.871c3.91,0,7.454-1.762,10.049-4.723c4.53-0.084,8.578-2.447,11.323-6.194
	c0.81,0.376,1.692,0.601,2.617,0.601c2.858,0,5.321-1.969,6.449-4.817c0.839,0.956,1.983,1.55,3.246,1.55
	c2.572,0,4.657-2.439,4.657-5.45C421.799,392.827,419.713,390.388,417.142,390.388z"/>
<g>
	<path fill="#545454" d="M673.272,301.466h-4.375l-0.985,5.914h-5.205l0.985-5.914h-5.677l-1.025,5.914h-5.203l0.985-5.914h-2.957
		v-5.046h3.824l1.025-5.834h-3.471v-5.046h4.337l0.986-5.756h5.203l-0.985,5.756h5.717l0.985-5.756h5.205l-0.986,5.756h2.997v5.046
		h-3.863l-1.025,5.834h3.508V301.466z M658.726,296.578h5.953l1.025-6.151h-5.953L658.726,296.578z"/>
	<path fill="#545454" d="M679.344,279.782h20.776v5.401h-14.784v5.598h13.011v5.401h-13.011v5.795h14.982v5.401h-20.975V279.782z"/>
	<path fill="#545454" d="M705.758,279.782h12.615c3.495,0,6.177,0.933,8.043,2.799c1.577,1.577,2.365,3.68,2.365,6.308v0.079
		c0,2.234-0.546,4.054-1.636,5.46c-1.092,1.406-2.517,2.438-4.278,3.095l6.742,9.856h-7.096l-5.915-8.831h-4.771v8.831h-6.07
		V279.782z M717.979,293.187c1.497,0,2.647-0.353,3.449-1.059c0.801-0.706,1.202-1.647,1.202-2.824v-0.079
		c0-1.307-0.42-2.288-1.262-2.942c-0.841-0.653-2.01-0.98-3.509-0.98h-6.032v7.885H717.979z"/>
	<path fill="#545454" d="M734.261,279.782h12.615c3.496,0,6.178,0.933,8.044,2.799c1.576,1.577,2.365,3.68,2.365,6.308v0.079
		c0,2.234-0.546,4.054-1.637,5.46s-2.517,2.438-4.277,3.095l6.742,9.856h-7.097l-5.914-8.831h-4.771v8.831h-6.071V279.782z
		 M746.482,293.187c1.498,0,2.648-0.353,3.449-1.059c0.802-0.706,1.203-1.647,1.203-2.824v-0.079c0-1.307-0.42-2.288-1.262-2.942
		c-0.841-0.653-2.01-0.98-3.509-0.98h-6.032v7.885H746.482z"/>
	<path fill="#545454" d="M776.169,307.852c-2.129,0-4.087-0.374-5.875-1.123c-1.787-0.75-3.33-1.761-4.631-3.036
		c-1.302-1.274-2.313-2.773-3.036-4.494c-0.724-1.722-1.085-3.568-1.085-5.54v-0.079c0-1.971,0.369-3.817,1.104-5.539
		c0.736-1.721,1.756-3.233,3.056-4.534c1.302-1.301,2.852-2.327,4.653-3.075c1.799-0.749,3.764-1.124,5.894-1.124
		c2.129,0,4.087,0.375,5.874,1.124c1.786,0.749,3.332,1.761,4.632,3.035c1.302,1.275,2.312,2.773,3.037,4.495
		c0.723,1.721,1.083,3.567,1.083,5.539v0.079c0,1.971-0.368,3.818-1.104,5.539c-0.736,1.722-1.755,3.232-3.056,4.534
		s-2.853,2.326-4.651,3.076C780.262,307.479,778.298,307.852,776.169,307.852z M776.248,302.254c1.209,0,2.326-0.223,3.352-0.67
		c1.024-0.447,1.897-1.064,2.621-1.854c0.723-0.788,1.288-1.701,1.695-2.74c0.406-1.038,0.611-2.149,0.611-3.332v-0.079
		c0-1.183-0.205-2.3-0.611-3.351c-0.407-1.051-0.986-1.971-1.735-2.76s-1.636-1.413-2.66-1.873
		c-1.025-0.459-2.143-0.689-3.352-0.689c-1.235,0-2.359,0.223-3.37,0.67c-1.013,0.447-1.881,1.064-2.604,1.853
		c-0.723,0.789-1.287,1.702-1.695,2.74c-0.407,1.039-0.609,2.148-0.609,3.331v0.079c0,1.183,0.202,2.3,0.609,3.351
		c0.408,1.051,0.987,1.971,1.735,2.759c0.749,0.789,1.629,1.414,2.642,1.873C773.889,302.024,775.013,302.254,776.248,302.254z"/>
	<path fill="#545454" d="M796.275,279.782h12.615c3.495,0,6.177,0.933,8.044,2.799c1.576,1.577,2.365,3.68,2.365,6.308v0.079
		c0,2.234-0.547,4.054-1.637,5.46c-1.092,1.406-2.517,2.438-4.278,3.095l6.742,9.856h-7.096l-5.915-8.831h-4.771v8.831h-6.07
		V279.782z M808.497,293.187c1.497,0,2.647-0.353,3.449-1.059c0.801-0.706,1.202-1.647,1.202-2.824v-0.079
		c0-1.307-0.42-2.288-1.261-2.942c-0.842-0.653-2.011-0.98-3.51-0.98h-6.032v7.885H808.497z"/>
</g>
</svg>
