<?xml version="1.0" encoding="UTF-8" standalone="no"?>
<!-- Created with Keyshape -->
<svg xmlns="http://www.w3.org/2000/svg" xmlns:xlink="http://www.w3.org/1999/xlink" viewBox="0 0 550 550" text-rendering="geometricPrecision" shape-rendering="geometricPrecision" style="white-space: pre;">
    <style>
@keyframes a0_do { 0% { stroke-dashoffset: 2200px; } 100% { stroke-dashoffset: 0px; } }
@keyframes roboto-w-animated_do { 0% { stroke-dashoffset: 620.3px; animation-timing-function: cubic-bezier(0.42,0,0.58,1); } 100% { stroke-dashoffset: 0px; } }
@keyframes roboto-e-animated_do { 0% { stroke-dashoffset: 427.89px; animation-timing-function: cubic-bezier(0.42,0,0.58,1); } 100% { stroke-dashoffset: 0px; } }
@keyframes roboto-b-animated_do { 0% { stroke-dashoffset: 461.57px; animation-timing-function: cubic-bezier(0.42,0,0.58,1); } 100% { stroke-dashoffset: 0px; } }
@keyframes roboto-h-animated-1_do { 0% { stroke-dashoffset: 448px; animation-timing-function: cubic-bezier(0.42,0,0.58,1); } 100% { stroke-dashoffset: 0px; } }
@keyframes Roboto-Exclamation-1_do { 0% { stroke-dashoffset: 206.79px; animation-timing-function: cubic-bezier(0.42,0,0.58,1); } 100% { stroke-dashoffset: 0px; } }
@keyframes roboto-e-animated-5_do { 0% { stroke-dashoffset: 427.89px; animation-timing-function: cubic-bezier(0.42,0,0.58,1); } 100% { stroke-dashoffset: 0px; } }
@keyframes roboto-l-animated-2_do { 0% { stroke-dashoffset: 278.1px; animation-timing-function: cubic-bezier(0.42,0,0.58,1); } 100% { stroke-dashoffset: 0px; } }
@keyframes roboto-l-animated-3_do { 0% { stroke-dashoffset: 278.1px; animation-timing-function: cubic-bezier(0.42,0,0.58,1); } 100% { stroke-dashoffset: 0px; } }
@keyframes roboto-o-animated-2_do { 0% { stroke-dashoffset: 410.11px; animation-timing-function: cubic-bezier(0.42,0,0.58,1); } 100% { stroke-dashoffset: 0px; } }
@keyframes roboto-e-animated-2_do { 0% { stroke-dashoffset: 427.89px; animation-timing-function: cubic-bezier(0.42,0,0.58,1); } 100% { stroke-dashoffset: 0px; } }
@keyframes roboto-e-animated-3_do { 0% { stroke-dashoffset: 427.89px; animation-timing-function: cubic-bezier(0.42,0,0.58,1); } 100% { stroke-dashoffset: 0px; } }
@keyframes roboto-e-animated-4_do { 0% { stroke-dashoffset: 427.89px; animation-timing-function: cubic-bezier(0.42,0,0.58,1); } 100% { stroke-dashoffset: 0px; } }
@keyframes roboto-d-animated_do { 0% { stroke-dashoffset: 419.67px; animation-timing-function: cubic-bezier(0.42,0,0.58,1); } 100% { stroke-dashoffset: 0px; } }
@keyframes roboto-v-animated_do { 0% { stroke-dashoffset: 368.95px; animation-timing-function: cubic-bezier(0.42,0,0.58,1); } 100% { stroke-dashoffset: 0px; } }
@keyframes roboto-l-animated_do { 0% { stroke-dashoffset: 278.1px; animation-timing-function: cubic-bezier(0.42,0,0.58,1); } 100% { stroke-dashoffset: 0px; } }
@keyframes roboto-o-animated_do { 0% { stroke-dashoffset: 410.11px; animation-timing-function: cubic-bezier(0.42,0,0.58,1); } 100% { stroke-dashoffset: 0px; } }
@keyframes roboto-p-animated_do { 0% { stroke-dashoffset: 376.43px; animation-timing-function: cubic-bezier(0.42,0,0.58,1); } 100% { stroke-dashoffset: 0px; } }
@keyframes roboto-r-animated_do { 0% { stroke-dashoffset: 443.29px; animation-timing-function: cubic-bezier(0.42,0,0.58,1); } 100% { stroke-dashoffset: 0px; } }
@keyframes roboto-a-animated-2_do { 0% { stroke-dashoffset: 389.09px; animation-timing-function: cubic-bezier(0.42,0,0.58,1); } 100% { stroke-dashoffset: 0px; } }
@keyframes roboto-c-animated-2_do { 0% { stroke-dashoffset: 390.31px; animation-timing-function: cubic-bezier(0.42,0,1,1); } 83.3333% { stroke-dashoffset: 0px; } 100% { stroke-dashoffset: 0px; } }
@keyframes roboto-i-animated-2_do { 0% { stroke-dashoffset: 204.07px; animation-timing-function: cubic-bezier(0.42,0,0.58,1); } 100% { stroke-dashoffset: 0px; } }
@keyframes roboto-y-animated_do { 0% { stroke-dashoffset: 322.5px; animation-timing-function: cubic-bezier(0.42,0,0.58,1); } 100% { stroke-dashoffset: 0px; } }
@keyframes roboto-n-animated_do { 0% { stroke-dashoffset: 480.84px; animation-timing-function: cubic-bezier(0.42,0,0.58,1); } 100% { stroke-dashoffset: 0px; } }
@keyframes roboto-t-animated_do { 0% { stroke-dashoffset: 307.03px; animation-timing-function: cubic-bezier(0.42,0,0.58,1); } 100% { stroke-dashoffset: 0px; } }
@keyframes roboto-a-animated_do { 0% { stroke-dashoffset: 389.09px; animation-timing-function: cubic-bezier(0.42,0,0.58,1); } 100% { stroke-dashoffset: 0px; } }
@keyframes roboto-h-animated_do { 0% { stroke-dashoffset: 448px; animation-timing-function: cubic-bezier(0.42,0,0.58,1); } 100% { stroke-dashoffset: 0px; } }
@keyframes roboto-i-animated-1_do { 0% { stroke-dashoffset: 204.07px; animation-timing-function: cubic-bezier(0.42,0,0.58,1); } 100% { stroke-dashoffset: 0px; } }
@keyframes roboto-a-animated-3_do { 0% { stroke-dashoffset: 389.09px; animation-timing-function: cubic-bezier(0.42,0,0.58,1); } 100% { stroke-dashoffset: 0px; } }
@keyframes roboto-m-animated_do { 0% { stroke-dashoffset: 652.06px; animation-timing-function: cubic-bezier(0.42,0,0.58,1); } 100% { stroke-dashoffset: 0px; } }
    </style>
    <rect width="530" height="530" fill="none" stroke="#ffffff" stroke-width="2" stroke-dashoffset="2200" stroke-dasharray="2200 2200" transform="translate(235,234.382) translate(-225,-225)" style="animation: a0_do 3s linear both;"/>
    <path id="roboto-w-animated" fill="none" stroke="#ffffff" stroke-linecap="round" stroke-linejoin="round" d="M69.5711,68.6484L78.3214,22.398L91.669,22.398L77.2495,87.398L63.7674,87.398L53.187,43.9159L42.6067,87.398L29.1246,87.398L14.705,22.398L28.0535,22.398L36.8482,68.5585L47.5623,22.398L58.9017,22.398Z" stroke-dasharray="620.29999999999995 620.29999999999995" stroke-dashoffset="620.29999999999995" stroke-width="2" transform="translate(295.274,387.301) translate(-64.792,-64.699)" style="animation: roboto-w-animated_do 3s linear both;"/>
    <path id="roboto-e-animated" fill="none" stroke="#ffffff" stroke-linecap="round" stroke-linejoin="round" d="M77.8974,48.7377L77.8974,59.2282L52.1831,59.2282L52.1831,76.6395L82.3613,76.6395L82.3613,87.398L38.79,87.398L38.79,22.398L82.2721,22.398L82.2721,33.2464L52.1831,33.2464L52.1831,48.7377Z" stroke-dasharray="427.88999999999999 427.88999999999999" stroke-dashoffset="427.88999999999999" stroke-width="2" transform="translate(393.71,387.301) translate(-67.1455,-64.699)" style="animation: roboto-e-animated_do 3s linear both;"/>
    <path id="roboto-b-animated" fill="none" stroke="#ffffff" stroke-linecap="round" stroke-linejoin="round" d="M34.2869,87.3984L34.2869,22.3984L57.0548,22.3984C64.9417,22.3984,70.9239,23.9087,75.0012,26.9296C79.0786,29.9506,81.1174,34.3775,81.1174,40.2109C81.1174,43.3955,80.2989,46.2006,78.6619,48.6262C77.025,51.0518,74.7483,52.83,71.8315,53.961C75.1649,54.7942,77.7913,56.4758,79.7111,59.0056C81.6308,61.5354,82.5905,64.6305,82.5905,68.2914C82.5905,74.5414,80.5965,79.2735,76.6083,82.4874C72.6202,85.7021,66.9359,87.3393,59.5547,87.3984L34.2869,87.3984ZM47.6799,59.0949L47.6799,76.6395L59.1531,76.6395C62.3077,76.6395,64.7706,75.888,66.5412,74.3851C68.3121,72.8821,69.1977,70.8062,69.1977,68.1574C69.1977,62.205,66.1173,59.1841,59.9566,59.0949L47.6799,59.0949ZM47.6799,49.6306L57.5904,49.6306C64.3465,49.5114,67.7243,46.8181,67.7243,41.5501C67.7243,38.6037,66.8688,36.4832,65.1576,35.1887C63.4461,33.894,60.7453,33.2468,57.0548,33.2468L47.6799,33.2468L47.6799,49.6306Z" stroke-dasharray="461.56999999999999 461.56999999999999" stroke-dashoffset="461.56999999999999" stroke-width="2" transform="translate(488.319,387.301) translate(-65.722,-64.6992)" style="animation: roboto-b-animated_do 3s linear both;"/>
    <path id="roboto-h-animated-1" fill="none" stroke="#ffffff" stroke-linecap="round" stroke-linejoin="round" d="M88.9996,94.6202L74.1185,94.6202L74.1185,63.6679L45.1004,63.6679L45.1004,94.6202L30.22,94.6202L30.22,22.398L45.1004,22.398L45.1004,51.6645L74.1185,51.6645L74.1185,22.398L88.9996,22.398Z" stroke-dasharray="448 448" stroke-dashoffset="448" stroke-width="2" transform="translate(79.1721,88.0709) scale(0.9,0.9) translate(-64.6475,-64.699)" style="animation: roboto-h-animated-1_do 3s linear both;"/>
    <path id="Roboto-Exclamation-1" fill="none" stroke="#ffffff" stroke-linecap="round" stroke-linejoin="round" d="M56.0713,22.3984L71.1827,22.3984L69.5143,71.9032L69.5143,71.9032L57.7396,71.9032ZM63.6275,79.6555C66.0152,79.6555,67.937,80.3586,69.3919,81.7659C70.8479,83.172,71.5759,84.9703,71.5759,87.1619C71.5759,89.321,70.8479,91.1031,69.3919,92.5103C67.937,93.9165,66.0152,94.6206,63.6275,94.6206C61.2724,94.6206,59.3668,93.9165,57.9108,92.5103C56.4559,91.1031,55.7279,89.321,55.7279,87.1619C55.7279,85.0039,56.4559,83.2132,57.9108,81.7897C59.3668,80.3673,61.2724,79.6555,63.6275,79.6555Z" stroke-dasharray="206.78999999999999 206.78999999999999" stroke-dashoffset="206.78999999999999" stroke-width="2" transform="translate(499.37,88.4892) scale(0.9,0.9) translate(-65.1119,-65.1642)" style="animation: Roboto-Exclamation-1_do 3s linear both;"/>
    <path id="roboto-e-animated-5" fill="none" stroke="#ffffff" stroke-linecap="round" stroke-linejoin="round" d="M77.8974,48.7377L77.8974,59.2282L52.1831,59.2282L52.1831,76.6395L82.3613,76.6395L82.3613,87.398L38.79,87.398L38.79,22.398L82.2721,22.398L82.2721,33.2464L52.1831,33.2464L52.1831,48.7377Z" stroke-dasharray="427.88999999999999 427.88999999999999" stroke-dashoffset="427.88999999999999" stroke-width="2" transform="translate(179.972,92.301) translate(-67.1455,-64.699)" style="animation: roboto-e-animated-5_do 3s linear both;"/>
    <path id="roboto-l-animated-2" fill="none" stroke="#ffffff" stroke-linecap="round" stroke-linejoin="round" d="M53.4323,76.6394L81.8698,76.6394L81.8698,87.398L40.039,87.398L40.039,22.398L53.4323,22.398Z" stroke-dasharray="278.10000000000002 278.10000000000002" stroke-dashoffset="278.10000000000002" stroke-width="2" transform="translate(261.494,92.301) translate(-67.2615,-64.699)" style="animation: roboto-l-animated-2_do 3s linear both;"/>
    <path id="roboto-l-animated-3" fill="none" stroke="#ffffff" stroke-linecap="round" stroke-linejoin="round" d="M53.4321,76.6394L81.8693,76.6394L81.8693,87.398L40.039,87.398L40.039,22.398L53.4321,22.398Z" stroke-dasharray="278.10000000000002 278.10000000000002" stroke-dashoffset="278.10000000000002" stroke-width="2" transform="translate(339.131,92.301) translate(-67.2615,-64.699)" style="animation: roboto-l-animated-3_do 3s linear both;"/>
    <path id="roboto-o-animated-2" fill="none" stroke="#ffffff" stroke-linecap="round" stroke-linejoin="round" d="M28.6217,52.3893C28.6217,46.1618,29.744,40.6799,31.989,35.9439C34.2339,31.2079,37.4056,27.5727,41.5043,25.0382C45.603,22.5036,50.2883,21.2363,55.5602,21.2363C60.8321,21.2363,65.5173,22.5036,69.616,25.0382C73.7148,27.5727,76.8865,31.2079,79.1315,35.9439C81.3763,40.6799,82.4984,46.1472,82.4984,52.3459L82.4984,55.1701L82.4984,55.1701C82.4984,61.398,81.398,66.8579,79.1966,71.5506C76.9951,76.243,73.8452,79.8639,69.7463,82.413C65.6476,84.9621,60.9479,86.2363,55.6471,86.2363C50.4041,86.2363,45.7262,84.9764,41.613,82.4564C37.4997,79.9362,34.3135,76.3372,32.0542,71.6592C29.7947,66.9811,28.6506,61.6007,28.6217,55.5177ZM69.2902,52.3025C69.2902,45.6692,68.1025,40.6292,65.7272,37.1822C63.3521,33.7352,59.9631,32.0117,55.5602,32.0117C51.1863,32.0117,47.8118,33.7135,45.4365,37.1171C43.0612,40.5205,41.8593,45.5099,41.8302,52.0852L41.8302,55.1701C41.8302,61.6297,43.0178,66.6407,45.3931,70.2037C47.7683,73.7665,51.1863,75.5479,55.6471,75.5479C60.021,75.5479,63.381,73.8316,65.7272,70.3991C68.0736,66.9666,69.2612,61.9628,69.2902,55.3874L69.2902,52.3025Z" stroke-dasharray="410.11000000000001 410.11000000000001" stroke-dashoffset="410.11000000000001" stroke-width="2" transform="translate(423.702,93.4629) translate(-64.647,-64.6992)" style="animation: roboto-o-animated-2_do 3s linear both;"/>
    <path id="roboto-e-animated-2" fill="none" stroke="#ffffff" stroke-linecap="round" stroke-linejoin="round" d="M77.8974,48.7377L77.8974,59.2282L52.1831,59.2282L52.1831,76.6394L82.3613,76.6394L82.3613,87.398L38.79,87.398L38.79,22.398L82.2721,22.398L82.2721,33.2464L52.1831,33.2464L52.1831,48.7377Z" stroke-dasharray="427.88999999999999 427.88999999999999" stroke-dashoffset="427.88999999999999" stroke-width="2" transform="translate(131.361,482.301) translate(-67.1455,-64.699)" style="animation: roboto-e-animated-2_do 3s linear both;"/>
    <path id="roboto-e-animated-3" fill="none" stroke="#ffffff" stroke-linecap="round" stroke-linejoin="round" d="M77.8974,48.7377L77.8974,59.2282L52.1831,59.2282L52.1831,76.6394L82.3613,76.6394L82.3613,87.398L38.79,87.398L38.79,22.398L82.2721,22.398L82.2721,33.2464L52.1831,33.2464L52.1831,48.7377Z" stroke-dasharray="427.88999999999999 427.88999999999999" stroke-dashoffset="427.88999999999999" stroke-width="2" transform="translate(240.578,482.301) translate(-67.1455,-64.699)" style="animation: roboto-e-animated-3_do 3s linear both;"/>
    <path id="roboto-e-animated-4" fill="none" stroke="#ffffff" stroke-linecap="round" stroke-linejoin="round" d="M77.8974,48.7377L77.8974,59.2282L52.1831,59.2282L52.1831,76.6394L82.3613,76.6394L82.3613,87.398L38.79,87.398L38.79,22.398L82.2721,22.398L82.2721,33.2464L52.1831,33.2464L52.1831,48.7377Z" stroke-dasharray="427.88999999999999 427.88999999999999" stroke-dashoffset="427.88999999999999" stroke-width="2" transform="translate(440.282,482.301) translate(-67.1455,-64.699)" style="animation: roboto-e-animated-4_do 3s linear both;"/>
    <path id="roboto-d-animated" fill="none" stroke="#ffffff" stroke-linecap="round" stroke-linejoin="round" d="M33.5897,87.3984L33.5897,22.3984L53.5896,22.3984C59.304,22.3984,64.4156,23.6857,68.9245,26.26C73.4335,28.8344,76.9527,32.4951,79.4825,37.2422C82.0123,41.9892,83.2772,47.3836,83.2772,53.4252L83.2772,56.4163C83.2772,62.458,82.0347,67.8299,79.5494,72.5323C77.0643,77.2347,73.5599,80.8805,69.0361,83.47C64.5123,86.0592,59.4081,87.3685,53.7236,87.3984L33.5897,87.3984ZM46.9825,33.2466L46.9825,76.6395L53.4557,76.6395C58.6939,76.6395,62.6968,74.9281,65.4646,71.5056C68.2325,68.083,69.6462,63.1872,69.7057,56.8181L69.7057,53.3805C69.7057,46.7733,68.3367,41.7659,65.5986,38.3582C62.8605,34.9504,58.8576,33.2466,53.5896,33.2466L46.9825,33.2466Z" stroke-dasharray="419.67000000000002 419.67000000000002" stroke-dashoffset="419.67000000000002" stroke-width="2" transform="translate(80.5231,482.301) translate(-65.9254,-64.6992)" style="animation: roboto-d-animated_do 3s linear both;"/>
    <path id="roboto-v-animated" fill="none" stroke="#ffffff" stroke-linecap="round" stroke-linejoin="round" d="M55.7191,71.2822L70.4513,22.398L85.3618,22.398L62.7282,87.398L48.7551,87.398L26.21,22.398L41.076,22.398Z" stroke-dasharray="368.94999999999999 368.94999999999999" stroke-dashoffset="368.94999999999999" stroke-width="2" transform="translate(187.615,482.301) translate(-64.705,-64.699)" style="animation: roboto-v-animated_do 3s linear both;"/>
    <path id="roboto-l-animated" fill="none" stroke="#ffffff" stroke-linecap="round" stroke-linejoin="round" d="M53.4321,76.6394L81.8693,76.6394L81.8693,87.398L40.039,87.398L40.039,22.398L53.4321,22.398Z" stroke-dasharray="278.10000000000002 278.10000000000002" stroke-dashoffset="278.10000000000002" stroke-width="2" transform="translate(286.93,482.301) translate(-67.2615,-64.699)" style="animation: roboto-l-animated_do 3s linear both;"/>
    <path id="roboto-o-animated" fill="none" stroke="#ffffff" stroke-linecap="round" stroke-linejoin="round" d="M28.6217,52.3893C28.6217,46.1618,29.744,40.6799,31.989,35.9439C34.2339,31.2079,37.4056,27.5727,41.5043,25.0382C45.603,22.5036,50.2883,21.2363,55.5602,21.2363C60.8321,21.2363,65.5173,22.5036,69.616,25.0382C73.7148,27.5727,76.8865,31.2079,79.1315,35.9439C81.3763,40.6799,82.4984,46.1472,82.4984,52.3459L82.4984,55.1701L82.4984,55.1701C82.4984,61.398,81.398,66.8579,79.1966,71.5506C76.9951,76.243,73.8452,79.8639,69.7463,82.413C65.6476,84.9621,60.9479,86.2363,55.6471,86.2363C50.4041,86.2363,45.7262,84.9764,41.613,82.4564C37.4997,79.9362,34.3135,76.3372,32.0542,71.6592C29.7947,66.9811,28.6506,61.6007,28.6217,55.5177ZM69.2902,52.3025C69.2902,45.6692,68.1025,40.6292,65.7272,37.1822C63.3521,33.7352,59.9631,32.0117,55.5602,32.0117C51.1863,32.0117,47.8118,33.7135,45.4365,37.1171C43.0612,40.5205,41.8593,45.5099,41.8302,52.0852L41.8302,55.1701C41.8302,61.6297,43.0178,66.6407,45.3931,70.2037C47.7683,73.7665,51.1863,75.5479,55.6471,75.5479C60.021,75.5479,63.381,73.8316,65.7272,70.3991C68.0736,66.9666,69.2612,61.9628,69.2902,55.3874L69.2902,52.3025Z" stroke-dasharray="410.11000000000001 410.11000000000001" stroke-dashoffset="410.11000000000001" stroke-width="2" transform="translate(335.052,483.463) translate(-64.647,-64.6992)" style="animation: roboto-o-animated_do 3s linear both;"/>
    <path id="roboto-p-animated" fill="none" stroke="#ffffff" stroke-linecap="round" stroke-linejoin="round" d="M47.273,64.4966L47.273,87.3984L33.8802,87.3984L33.8802,22.3984L59.2373,22.3984C64.1183,22.3984,68.4114,23.2913,72.1168,25.0771C75.8222,26.8627,78.6717,29.3999,80.6659,32.6885C82.66,35.9774,83.6569,39.7198,83.6569,43.9163C83.6569,50.2853,81.4769,55.3076,77.1168,58.9832C72.7566,62.6588,66.7224,64.4966,59.0142,64.4966L47.273,64.4966ZM47.273,53.6484L59.2373,53.6484C62.779,53.6484,65.4799,52.815,67.34,51.1485C69.2001,49.4818,70.1301,47.1008,70.1301,44.0056C70.1301,40.8211,69.1927,38.2466,67.3177,36.2823C65.4427,34.3181,62.8534,33.3061,59.5498,33.2467L47.273,33.2467L47.273,53.6484Z" stroke-dasharray="376.43000000000001 376.43000000000001" stroke-dashoffset="376.42999999999995" stroke-width="2" transform="translate(390.81,482.301) translate(-66.274,-64.6992)" style="animation: roboto-p-animated_do 3s linear both;"/>
    <path id="roboto-r-animated" fill="none" stroke="#ffffff" stroke-linecap="round" stroke-linejoin="round" d="M58.3495,63.6038L47.6799,63.6038L47.6799,87.3984L34.2869,87.3984L34.2869,22.3984L58.4387,22.3984C66.1173,22.3984,72.0399,24.1097,76.2065,27.5323C80.3732,30.9549,82.4565,35.7912,82.4565,42.0412C82.4565,46.4759,81.4968,50.1736,79.5771,53.135C77.6574,56.0964,74.7482,58.4549,70.8494,60.2109L84.9122,86.7738L84.9122,87.3984L70.537,87.3984L58.3495,63.6038ZM47.6799,52.7556L58.4833,52.7556C61.8465,52.7556,64.4506,51.8999,66.2959,50.1887C68.1411,48.4773,69.0637,46.1186,69.0637,43.1127C69.0637,40.0472,68.1932,37.6365,66.452,35.8805C64.711,34.1247,62.0399,33.2467,58.4387,33.2467L47.6799,33.2467L47.6799,52.7556Z" stroke-dasharray="443.29000000000002 443.29000000000002" stroke-dashoffset="443.28999999999996" stroke-width="2" transform="translate(494.133,482.301) translate(-67.2327,-64.6992)" style="animation: roboto-r-animated_do 3s linear both;"/>
    <path id="roboto-a-animated-2" fill="none" stroke="#ffffff" stroke-linecap="round" stroke-linejoin="round" d="M68.2647,74.0056L44.7826,74.0056L40.3182,87.3984L26.0772,87.3984L50.2737,22.3984L62.6843,22.3984L87.0146,87.3984L72.7737,87.3984L68.2647,74.0056ZM48.3986,63.1573L64.6486,63.1573L56.479,38.8269L48.3986,63.1573Z" stroke-dasharray="389.08999999999997 389.08999999999997" stroke-dashoffset="389.08999999999997" stroke-width="2" transform="translate(87.8444,387.301) translate(-65.7342,-64.6992)" style="animation: roboto-a-animated-2_do 3s linear both;"/>
    <path id="roboto-c-animated-2" fill="none" stroke="#ffd15f" stroke-linecap="round" stroke-linejoin="round" d="M82.3458,64.2945C81.8534,71.1016,79.3406,76.4603,74.8074,80.3708C70.2742,84.2809,64.3,86.2363,56.8845,86.2363C48.774,86.2363,42.3943,83.5062,37.7452,78.0462C33.0961,72.5861,30.7716,65.0911,30.7716,55.5612L30.7716,51.6943C30.7716,45.6113,31.8433,40.2526,33.9868,35.618C36.1303,30.9834,39.1935,27.4279,43.1763,24.9512C47.1592,22.4746,51.7865,21.2363,57.0584,21.2363C64.3578,21.2363,70.238,23.1915,74.6988,27.102C79.1596,31.0124,81.7375,36.5015,82.4327,43.5692L69.3979,43.5692C69.0793,39.485,67.9424,36.5232,65.9871,34.6839C64.032,32.8445,61.0557,31.9249,57.0584,31.9249C52.7134,31.9249,49.462,33.4818,47.304,36.5956C45.146,39.7095,44.0381,44.5396,43.9801,51.086L43.9801,55.8654C43.9801,62.7014,45.0157,67.698,47.0868,70.8554C49.1579,74.0127,52.4237,75.5913,56.8845,75.5913C60.9109,75.5913,63.9161,74.6717,65.9003,72.8323C67.8845,70.993,69.0214,68.147,69.311,64.2945L82.3458,64.2945Z" stroke-dasharray="390.31 390.31" stroke-dashoffset="390.31" stroke-width="2" transform="translate(82.7311,288.463) translate(-65.3153,-64.6992)" style="animation: roboto-c-animated-2_do 3s linear both;"/>
    <path id="roboto-i-animated-2" fill="none" stroke="#ffd15f" stroke-linecap="round" stroke-linejoin="round" d="M70.8992,94.6202L56.018,94.6202L56.018,22.398L70.8992,22.398Z" stroke-dasharray="204.06999999999999 204.06999999999999" stroke-dashoffset="204.06999999999999" stroke-width="2" transform="translate(416.047,283.071) scale(0.9,0.9) translate(-64.734,-64.699)" style="animation: roboto-i-animated-2_do 3s linear both;"/>
    <path id="roboto-y-animated" fill="none" stroke="#ffd15f" stroke-linecap="round" stroke-linejoin="round" d="M55.1642,75.8702L68.2093,46.584L82.331,46.584L61.7512,88.0125L61.7512,111.584L48.6202,111.584L48.6202,88.0125L28.041,46.584L42.205,46.584Z" stroke-dasharray="322.5 322.5" stroke-dashoffset="322.5" stroke-width="2" transform="translate(161.823,263.115) translate(-64.6765,-64.699)" style="animation: roboto-y-animated_do 3s linear both;"/>
    <path id="roboto-n-animated" fill="none" stroke="#ffd15f" stroke-linecap="round" stroke-linejoin="round" d="M79.109,87.398L66.7293,87.398L42.6288,44.6302L42.6288,87.398L30.249,87.398L30.249,22.398L42.6288,22.398L66.7704,65.2558L66.7704,22.398L79.109,22.398Z" stroke-dasharray="480.83999999999997 480.83999999999997" stroke-dashoffset="480.84000000000003" stroke-width="2" transform="translate(233.203,287.301) translate(-64.647,-64.699)" style="animation: roboto-n-animated_do 3s linear both;"/>
    <path id="roboto-t-animated" fill="none" stroke="#ffd15f" stroke-linecap="round" stroke-linejoin="round" d="M48.38,33.2464L30.22,33.2464L30.22,22.398L79.17,22.398L79.17,33.2464L60.7622,33.2464L60.7622,87.398L48.38,87.398Z" stroke-dasharray="307.02999999999997 307.02999999999997" stroke-dashoffset="307.02999999999997" stroke-width="2" transform="translate(302.123,287.301) translate(-64.6765,-64.699)" style="animation: roboto-t-animated_do 3s linear both;"/>
    <path id="roboto-a-animated" fill="none" stroke="#ffd15f" stroke-linecap="round" stroke-linejoin="round" d="M66.8819,74.0056L44.1695,74.0056L39.8515,87.3984L26.0772,87.3984L49.4806,22.3984L61.4844,22.3984L85.0172,87.3984L71.243,87.3984L66.8819,74.0056ZM47.667,63.1573L63.3843,63.1573L55.4825,38.8269L47.667,63.1573Z" stroke-dasharray="389.08999999999997 389.08999999999997" stroke-dashoffset="389.08999999999997" stroke-width="2" transform="translate(485.684,287.301) translate(-65.7342,-64.6992)" style="animation: roboto-a-animated_do 3s linear both;"/>
    <path id="roboto-h-animated" fill="none" stroke="#ffd15f" stroke-linecap="round" stroke-linejoin="round" d="M79.12,87.398L66.7401,87.398L66.7401,59.5408L42.5993,59.5408L42.5993,87.398L30.22,87.398L30.22,22.398L42.5993,22.398L42.5993,48.7377L66.7401,48.7377L66.7401,22.398L79.12,22.398Z" stroke-dasharray="448 448" stroke-dashoffset="448" stroke-width="2" transform="translate(370.252,287.301) translate(-64.6475,-64.699)" style="animation: roboto-h-animated_do 3s linear both;"/>
    <path id="roboto-i-animated-1" fill="none" stroke="#ffffff" stroke-linecap="round" stroke-linejoin="round" d="M70.8992,94.6202L56.018,94.6202L56.018,22.398L70.8992,22.398Z" stroke-dasharray="204.06999999999999 204.06999999999999" stroke-dashoffset="204.06999999999999" stroke-width="2" transform="translate(71.4468,188.071) scale(0.9,0.9) translate(-64.734,-64.699)" style="animation: roboto-i-animated-1_do 3s linear both;"/>
    <path id="roboto-a-animated-3" fill="none" stroke="#ffffff" stroke-linecap="round" stroke-linejoin="round" d="M65.0195,70.0358L43.3437,70.0358L39.2228,82.3984L26.0772,82.3984L48.4124,22.3984L59.8684,22.3984L82.3271,82.3984L69.1816,82.3984L65.0195,70.0358ZM46.6816,60.022L61.6816,60.022L54.1404,37.5632L46.6816,60.022Z" stroke-dasharray="389.08999999999997 389.08999999999997" stroke-dashoffset="389.08999999999997" stroke-width="2" transform="translate(291.719,192.301) translate(-65.7342,-64.6992)" style="animation: roboto-a-animated-3_do 3s linear both;"/>
    <path id="roboto-m-animated" fill="none" stroke="#ffffff" stroke-linecap="round" stroke-linejoin="round" d="M36.2922,22.398L51.7039,65.9147L67.0333,22.398L83.2698,22.398L83.2698,82.398L70.8659,82.398L70.8659,65.997L72.102,37.687L55.9074,82.398L47.4182,82.398L31.2647,37.7281L32.5008,65.997L32.5008,82.398L20.138,82.398L20.138,22.398Z" stroke-dasharray="652.05999999999995 652.05999999999995" stroke-dashoffset="652.05999999999995" stroke-width="2" transform="translate(485.696,192.301) translate(-64.647,-64.699)" style="animation: roboto-m-animated_do 3s linear both;"/>
</svg>
