<?xml version="1.0" encoding="UTF-8" standalone="no"?>
<!-- Created with Keyshape -->
<svg xmlns="http://www.w3.org/2000/svg" xmlns:xlink="http://www.w3.org/1999/xlink" width="128" height="128" viewBox="0 0 128 128">
    <style>
@keyframes roboto-c-animated_do { 0% { stroke-dashoffset: 390.31px; animation-timing-function: cubic-bezier(0.42,0,0.58,1); } 100% { stroke-dashoffset: 0px; } }
    </style>
    <g transform="translate(65.3153,64.6991) translate(-34.5437,-43.4628)">
        <path id="roboto-c-animated" fill="none" stroke="#404040" stroke-linecap="round" stroke-linejoin="round" d="M99.7427,78.8188C99.0842,87.9221,95.7238,95.0884,89.6615,100.318C83.5991,105.547,75.6097,108.162,65.6929,108.162C54.8465,108.162,46.3148,104.511,40.0975,97.2092C33.8802,89.9073,30.7716,79.8842,30.7716,67.1396L30.7716,61.9683C30.7716,53.8335,32.2048,46.6672,35.0714,40.4692C37.9379,34.2713,42.0343,29.5164,47.3607,26.2043C52.687,22.8923,58.8752,21.2363,65.9254,21.2363C75.6871,21.2363,83.5507,23.851,89.5162,29.0806C95.4817,34.3101,98.9293,41.6507,99.859,51.1025L82.4273,51.1025C82.0012,45.6406,80.4808,41.6798,77.866,39.22C75.2513,36.7602,71.2711,35.5303,65.9254,35.5303C60.1148,35.5303,55.7666,37.6124,52.8807,41.7766C49.9948,45.9409,48.5131,52.4002,48.4356,61.1548L48.4356,67.5464C48.4356,76.6884,49.8205,83.3704,52.5902,87.5928C55.3599,91.8151,59.7274,93.9263,65.6929,93.9263C71.0774,93.9263,75.0963,92.6964,77.7498,90.2366C80.4033,87.7768,81.9237,83.9709,82.3111,78.8188L99.7427,78.8188Z" stroke-dasharray="390.31 390.31" stroke-dashoffset="390.31" transform="translate(34.5437,43.4629) translate(-65.3153,-64.6992)" style="animation: roboto-c-animated_do 3s linear both;"/>
    </g>
</svg>
