<!-- <?xml version="1.0" encoding="UTF-8" standalone="no"?> -->
<!-- Created with Keyshape -->
<svg xmlns="http://www.w3.org/2000/svg" xmlns:xlink="http://www.w3.org/1999/xlink" viewBox="0 0 750 250" text-rendering="geometricPrecision" shape-rendering="geometricPrecision" style="white-space: pre;">
    <style>
@keyframes Roboto-m-lowercase-1_do { 0% { stroke-dashoffset: 501.07px; animation-timing-function: cubic-bezier(0.42,0,0.58,1); } 61.2245% { stroke-dashoffset: 0px; animation-timing-function: cubic-bezier(0,0,0.58,1); } 100% { stroke-dashoffset: 0px; } }
@keyframes Roboto-Apostrophe-1_do { 0% { stroke-dashoffset: 83.22px; animation-timing-function: cubic-bezier(0.42,0,0.58,1); } 61.2245% { stroke-dashoffset: 0px; animation-timing-function: cubic-bezier(0,0,0.58,1); } 100% { stroke-dashoffset: 0px; } }
@keyframes Roboto-i-lowercase-1_do { 0% { stroke-dashoffset: 216.72px; animation-timing-function: cubic-bezier(0.42,0,0.58,1); } 61.2245% { stroke-dashoffset: 0px; animation-timing-function: cubic-bezier(0,0,0.58,1); } 100% { stroke-dashoffset: 0px; } }
@keyframes roboto-i-animated-1_do { 0% { stroke-dashoffset: 204.07px; animation-timing-function: cubic-bezier(0.42,0,0.58,1); } 61.2245% { stroke-dashoffset: 0px; animation-timing-function: cubic-bezier(0,0,0.58,1); } 100% { stroke-dashoffset: 0px; } }
@keyframes roboto-h-animated-1_do { 0% { stroke-dashoffset: 448px; animation-timing-function: cubic-bezier(0.42,0,0.58,1); } 61.2245% { stroke-dashoffset: 0px; animation-timing-function: cubic-bezier(0,0,0.58,1); } 100% { stroke-dashoffset: 0px; } }
@keyframes Roboto-Exclamation-1_do { 0% { stroke-dashoffset: 206.79px; animation-timing-function: cubic-bezier(0.42,0,0.58,1); } 61.2245% { stroke-dashoffset: 0px; animation-timing-function: cubic-bezier(0,0,0.58,1); } 100% { stroke-dashoffset: 0px; } }
@keyframes roboto-w-animated_do { 0% { stroke-dashoffset: 620.3px; animation-timing-function: cubic-bezier(0.42,0,0.58,1); } 61.2245% { stroke-dashoffset: 0px; } 100% { stroke-dashoffset: 0px; } }
@keyframes roboto-e-animated_do { 0% { stroke-dashoffset: 427.89px; animation-timing-function: cubic-bezier(0.42,0,0.58,1); } 61.2245% { stroke-dashoffset: 0px; } 100% { stroke-dashoffset: 0px; } }
@keyframes roboto-e-animated-2_do { 0% { stroke-dashoffset: 427.89px; animation-timing-function: cubic-bezier(0.42,0,0.58,1); } 61.2245% { stroke-dashoffset: 0px; } 100% { stroke-dashoffset: 0px; } }
@keyframes roboto-e-animated-3_do { 0% { stroke-dashoffset: 427.89px; animation-timing-function: cubic-bezier(0.42,0,0.58,1); } 61.2245% { stroke-dashoffset: 0px; } 100% { stroke-dashoffset: 0px; } }
@keyframes roboto-e-animated-4_do { 0% { stroke-dashoffset: 427.89px; animation-timing-function: cubic-bezier(0.42,0,0.58,1); } 61.2245% { stroke-dashoffset: 0px; } 100% { stroke-dashoffset: 0px; } }
@keyframes roboto-b-animated_do { 0% { stroke-dashoffset: 461.57px; animation-timing-function: cubic-bezier(0.42,0,0.58,1); } 61.2245% { stroke-dashoffset: 0px; } 100% { stroke-dashoffset: 0px; } }
@keyframes roboto-d-animated_do { 0% { stroke-dashoffset: 419.67px; animation-timing-function: cubic-bezier(0.42,0,0.58,1); } 61.2245% { stroke-dashoffset: 0px; } 100% { stroke-dashoffset: 0px; } }
@keyframes roboto-v-animated_do { 0% { stroke-dashoffset: 368.95px; animation-timing-function: cubic-bezier(0.42,0,0.58,1); } 61.2245% { stroke-dashoffset: 0px; } 100% { stroke-dashoffset: 0px; } }
@keyframes roboto-l-animated_do { 0% { stroke-dashoffset: 278.1px; animation-timing-function: cubic-bezier(0.42,0,0.58,1); } 61.2245% { stroke-dashoffset: 0px; } 100% { stroke-dashoffset: 0px; } }
@keyframes roboto-o-animated_do { 0% { stroke-dashoffset: 410.11px; animation-timing-function: cubic-bezier(0.42,0,0.58,1); } 61.2245% { stroke-dashoffset: 0px; } 100% { stroke-dashoffset: 0px; } }
@keyframes roboto-p-animated_do { 0% { stroke-dashoffset: 376.43px; animation-timing-function: cubic-bezier(0.42,0,0.58,1); } 61.2245% { stroke-dashoffset: 0px; } 100% { stroke-dashoffset: 0px; } }
@keyframes roboto-r-animated_do { 0% { stroke-dashoffset: 443.29px; animation-timing-function: cubic-bezier(0.42,0,0.58,1); } 61.2245% { stroke-dashoffset: 0px; } 100% { stroke-dashoffset: 0px; } }
@keyframes roboto-c-animated-2_do { 0% { stroke-dashoffset: 390.31px; animation-timing-function: cubic-bezier(0.42,0,0.58,1); } 61.2245% { stroke-dashoffset: 0px; } 100% { stroke-dashoffset: 0px; } }
@keyframes roboto-i-animated-2_do { 0% { stroke-dashoffset: 204.07px; animation-timing-function: cubic-bezier(0.42,0,0.58,1); } 61.2245% { stroke-dashoffset: 0px; animation-timing-function: cubic-bezier(0,0,0.58,1); } 100% { stroke-dashoffset: 0px; } }
@keyframes roboto-y-animated_do { 0% { stroke-dashoffset: 322.5px; animation-timing-function: cubic-bezier(0.42,0,0.58,1); } 61.2245% { stroke-dashoffset: 0px; } 100% { stroke-dashoffset: 0px; } }
@keyframes roboto-n-animated_do { 0% { stroke-dashoffset: 480.84px; animation-timing-function: cubic-bezier(0.42,0,0.58,1); } 61.2245% { stroke-dashoffset: 0px; } 100% { stroke-dashoffset: 0px; } }
@keyframes roboto-t-animated_do { 0% { stroke-dashoffset: 307.03px; animation-timing-function: cubic-bezier(0.42,0,0.58,1); } 63.2653% { stroke-dashoffset: 0px; } 100% { stroke-dashoffset: 0px; } }
@keyframes roboto-a-animated_do { 0% { stroke-dashoffset: 389.09px; animation-timing-function: cubic-bezier(0.42,0,0.58,1); } 61.2245% { stroke-dashoffset: 0px; } 100% { stroke-dashoffset: 0px; } }
@keyframes roboto-a-animated-2_do { 0% { stroke-dashoffset: 389.09px; animation-timing-function: cubic-bezier(0.42,0,0.58,1); } 61.2245% { stroke-dashoffset: 0px; } 100% { stroke-dashoffset: 0px; } }
@keyframes roboto-h-animated_do { 0% { stroke-dashoffset: 448px; animation-timing-function: cubic-bezier(0.42,0,0.58,1); } 61.2245% { stroke-dashoffset: 0px; } 100% { stroke-dashoffset: 0px; } }
    </style>
    <path id="Roboto-m-lowercase-1" fill="none" stroke="#f7fff7" d="M35.9139,51.1606C40.3687,45.6987,46.3922,42.9678,53.9847,42.9678C62.0808,42.9678,67.6395,46.1635,70.661,52.5552C75.077,46.1635,81.3717,42.9678,89.5452,42.9678C96.363,42.9678,101.437,44.953,104.769,48.9236C108.1,52.8941,109.766,58.8693,109.766,66.8491L109.766,107L92.9154,107L92.9154,66.9072C92.9154,63.3434,92.2181,60.7384,90.8236,59.092C89.429,57.4457,86.9692,56.6226,83.4442,56.6226C78.4083,56.6226,74.922,59.0242,72.9852,63.8276L73.0433,107L56.2508,107L56.2508,66.9653C56.2508,63.324,55.5342,60.6899,54.1009,59.063C52.6676,57.436,50.2272,56.6226,46.7796,56.6226C42.0149,56.6226,38.5674,58.5981,36.4368,62.5493L36.4368,107L19.6444,107L19.6444,44.1299L35.3909,44.1299L35.3909,44.1299Z" stroke-dasharray="501.06999999999999 501.06999999999999" stroke-dashoffset="501.06999999999999" stroke-linecap="round" stroke-linejoin="round" transform="translate(271.413,85.2475) scale(0.9,0.9) translate(-64.7052,-74.9839)" style="animation: Roboto-m-lowercase-1_do 4.9s linear both;"/>
    <path id="Roboto-Apostrophe-1" fill="none" stroke="#f7fff7" stroke-linecap="round" stroke-linejoin="round" d="M59.5919,17.75L72.9561,17.75L72.9561,26.7563C72.9561,30.2427,71.9877,34.0195,70.0509,38.0869C68.114,42.1543,65.538,45.5825,62.3228,48.3716L54.4205,43.7812C57.7519,38.5517,59.4757,33.148,59.5919,27.5698Z" stroke-dasharray="83.219999999999999 83.219999999999999" stroke-dashoffset="83.219999999999999" transform="translate(217.158,48.5532) scale(0.9,0.9) translate(-63.6883,-33.0608)" style="animation: Roboto-Apostrophe-1_do 4.9s linear both;"/>
    <path id="Roboto-i-lowercase-1" fill="none" stroke="#f7fff7" d="M73.1014,107L56.2508,107L56.2508,44.1299L73.1014,44.1299L73.1014,107ZM55.263,27.8604C55.263,25.3424,56.1055,23.27,57.7906,21.6431C59.4757,20.0161,61.7708,19.2026,64.6761,19.2026C67.5426,19.2026,69.8281,20.0161,71.5325,21.6431C73.237,23.27,74.0892,25.3424,74.0892,27.8604C74.0892,30.417,73.2273,32.5088,71.5035,34.1357C69.7797,35.7627,67.5039,36.5762,64.6761,36.5762C61.8483,36.5762,59.5725,35.7627,57.8487,34.1357C56.1249,32.5088,55.263,30.417,55.263,27.8604Z" stroke-dasharray="216.72 216.72" stroke-dashoffset="216.72" stroke-linecap="round" stroke-linejoin="round" transform="translate(124.086,74.5532) scale(0.9,0.9) translate(-64.6761,-63.1013)" style="animation: Roboto-i-lowercase-1_do 4.9s linear both;"/>
    <path id="roboto-i-animated-1" fill="none" stroke="#f7fff7" stroke-linecap="round" stroke-linejoin="round" d="M73.45,107L56.018,107L56.018,22.398L73.45,22.398Z" stroke-dasharray="204.06999999999999 204.06999999999999" stroke-dashoffset="204.06999999999999" transform="translate(194.502,76.6241) scale(0.9,0.9) translate(-64.734,-64.699)" style="animation: roboto-i-animated-1_do 4.9s linear both;"/>
    <path id="roboto-h-animated-1" fill="none" stroke="#f7fff7" stroke-linecap="round" stroke-linejoin="round" d="M99.075,107L81.643,107L81.643,70.742L47.651,70.742L47.651,107L30.22,107L30.22,22.398L47.651,22.398L47.651,56.681L81.643,56.681L81.643,22.398L99.075,22.398Z" stroke-dasharray="448 448" stroke-dashoffset="448" transform="translate(74.4429,76.6241) scale(0.9,0.9) translate(-64.6475,-64.699)" style="animation: roboto-h-animated-1_do 4.9s linear both;"/>
    <path id="Roboto-Exclamation-1" fill="none" stroke="#f7fff7" stroke-linecap="round" stroke-linejoin="round" d="M56.1346,22.3984L74.0311,22.3984L72.0555,81.0269L72.0555,81.0269L58.1102,81.0269ZM65.0828,90.2075C67.9107,90.2075,70.1864,91.0404,71.9102,92.7061C73.634,94.3718,74.4959,96.5023,74.4959,99.0977C74.4959,101.654,73.634,103.765,71.9102,105.431C70.1864,107.097,67.9107,107.93,65.0828,107.93C62.2938,107.93,60.0374,107.097,58.3136,105.431C56.5897,103.765,55.7279,101.654,55.7279,99.0977C55.7279,96.541,56.5897,94.4202,58.3136,92.7351C60.0374,91.05,62.2938,90.2075,65.0828,90.2075Z" stroke-dasharray="206.78999999999999 206.78999999999999" stroke-dashoffset="206.78999999999999" transform="translate(147.991,76.53) scale(0.9,0.9) translate(-65.1119,-65.1642)" style="animation: Roboto-Exclamation-1_do 4.9s linear both;"/>
    <path id="roboto-w-animated" fill="none" stroke="#f7fff7" stroke-linecap="round" stroke-linejoin="round" d="M69.4911,68.5809L78.2286,22.398L91.5568,22.398L77.1583,87.3032L63.6958,87.3032L53.1309,43.8845L42.566,87.3032L29.1036,87.3032L14.705,22.398L28.034,22.398L36.8159,68.4912L47.5144,22.398L58.8372,22.398Z" stroke-dasharray="620.29999999999995 620.29999999999995" stroke-dashoffset="620.29999999999995" stroke-width="1" transform="translate(157.864,193.414) translate(-64.792,-64.699)" style="animation: roboto-w-animated_do 4.9s linear both;"/>
    <path id="roboto-e-animated" fill="none" stroke="#f7fff7" stroke-linecap="round" stroke-linejoin="round" d="M71.1018,44.1607L71.1018,52.8283L49.8558,52.8283L49.8558,67.2141L74.79,67.2141L74.79,76.1031L38.79,76.1031L38.79,22.398L74.7163,22.398L74.7163,31.3613L49.8558,31.3613L49.8558,44.1607Z" stroke-dasharray="427.88999999999999 427.88999999999999" stroke-dashoffset="427.88999999999999" transform="translate(219.298,203.517) translate(-67.1455,-64.699)" style="animation: roboto-e-animated_do 4.9s linear both;"/>
    <path id="roboto-e-animated-2" fill="none" stroke="#f7fff7" stroke-linecap="round" stroke-linejoin="round" d="M71.1018,44.1607L71.1018,52.8283L49.8558,52.8283L49.8558,67.214L74.79,67.214L74.79,76.1031L38.79,76.1031L38.79,22.398L74.7163,22.398L74.7163,31.3613L49.8558,31.3613L49.8558,44.1607Z" stroke-dasharray="427.88999999999999 427.88999999999999" stroke-dashoffset="427.88999999999999" transform="translate(384.759,204.274) translate(-67.1455,-64.699)" style="animation: roboto-e-animated-2_do 4.9s linear both;"/>
    <path id="roboto-e-animated-3" fill="none" stroke="#f7fff7" stroke-linecap="round" stroke-linejoin="round" d="M71.1018,44.1607L71.1018,52.8283L49.8558,52.8283L49.8558,67.214L74.79,67.214L74.79,76.1031L38.79,76.1031L38.79,22.398L74.7163,22.398L74.7163,31.3613L49.8558,31.3613L49.8558,44.1607Z" stroke-dasharray="427.88999999999999 427.88999999999999" stroke-dashoffset="427.88999999999999" transform="translate(478.171,203.796) translate(-67.1455,-64.699)" style="animation: roboto-e-animated-3_do 4.9s linear both;"/>
    <path id="roboto-e-animated-4" fill="none" stroke="#f7fff7" stroke-linecap="round" stroke-linejoin="round" d="M71.1018,44.1607L71.1018,52.8283L49.8558,52.8283L49.8558,67.214L74.79,67.214L74.79,76.1031L38.79,76.1031L38.79,22.398L74.7163,22.398L74.7163,31.3613L49.8558,31.3613L49.8558,44.1607Z" stroke-dasharray="427.88999999999999 427.88999999999999" stroke-dashoffset="427.88999999999999" transform="translate(656.536,205.852) translate(-67.1455,-64.699)" style="animation: roboto-e-animated-4_do 4.9s linear both;"/>
    <path id="roboto-b-animated" fill="none" stroke="#f7fff7" stroke-linecap="round" stroke-linejoin="round" d="M34.2869,76.1084L34.2869,22.3984L53.1002,22.3984C59.6172,22.3984,64.5603,23.6464,67.9294,26.1426C71.2986,28.6388,72.9833,32.2968,72.9833,37.117C72.9833,39.7485,72.307,42.0663,70.9543,44.0706C69.6017,46.0749,67.7205,47.5443,65.3103,48.4788C68.0647,49.1673,70.2349,50.5568,71.8213,52.6472C73.4075,54.7376,74.2005,57.2951,74.2005,60.3201C74.2005,65.4846,72.5529,69.3947,69.2574,72.0504C65.962,74.7067,61.265,76.0596,55.1659,76.1084L34.2869,76.1084ZM45.3536,52.721L45.3536,67.2182L54.834,67.2182C57.4407,67.2182,59.4758,66.5973,60.9389,65.3554C62.4022,64.1135,63.134,62.3981,63.134,60.2094C63.134,55.2909,60.5886,52.7947,55.498,52.721L45.3536,52.721ZM45.3536,44.9006L53.5428,44.9006C59.1254,44.8021,61.9165,42.5766,61.9165,38.2236C61.9165,35.789,61.2096,34.0368,59.7956,32.9671C58.3814,31.8973,56.1497,31.3625,53.1002,31.3625L45.3536,31.3625L45.3536,44.9006Z" stroke-dasharray="461.56999999999999 461.56999999999999" stroke-dashoffset="461.56999999999999" transform="translate(265.009,203.431) translate(-65.722,-64.6992)" style="animation: roboto-b-animated_do 4.9s linear both;"/>
    <path id="roboto-d-animated" fill="none" stroke="#f7fff7" stroke-linecap="round" stroke-linejoin="round" d="M33.5897,87.3084L33.5897,22.3984L53.5619,22.3984C59.2684,22.3984,64.3729,23.6839,68.8756,26.2547C73.3783,28.8255,76.8927,32.4811,79.419,37.2216C81.9453,41.9621,83.2084,47.349,83.2084,53.3822L83.2084,56.3692C83.2084,62.4025,81.9676,67.767,79.4858,72.4629C77.0041,77.1588,73.5046,80.7995,68.987,83.3854C64.4695,85.9711,59.3724,87.2785,53.6957,87.3084L33.5897,87.3084ZM46.964,33.2316L46.964,76.5644L53.4282,76.5644C58.6591,76.5644,62.6565,74.8554,65.4205,71.4376C68.1845,68.0197,69.5963,63.1307,69.6557,56.7704L69.6557,53.3376C69.6557,46.7396,68.2886,41.7391,65.5543,38.3361C62.82,34.933,58.8226,33.2316,53.5619,33.2316L46.964,33.2316Z" stroke-dasharray="419.67000000000002 419.67000000000002" stroke-dashoffset="419.67000000000002" transform="translate(330.931,192.451) translate(-65.9254,-64.6992)" style="animation: roboto-d-animated_do 4.9s linear both;"/>
    <path id="roboto-v-animated" fill="none" stroke="#f7fff7" stroke-linecap="round" stroke-linejoin="round" d="M50.5936,62.7914L62.7669,22.398L75.0876,22.398L56.3853,76.108L44.8392,76.108L26.21,22.398L38.4939,22.398Z" stroke-dasharray="368.94999999999999 368.94999999999999" stroke-dashoffset="368.94999999999999" transform="translate(435.007,204.275) translate(-64.705,-64.699)" style="animation: roboto-v-animated_do 4.9s linear both;"/>
    <path id="roboto-l-animated" fill="none" stroke="#f7fff7" stroke-linecap="round" stroke-linejoin="round" d="M51.1058,67.2181L74.6037,67.2181L74.6037,76.108L40.039,76.108L40.039,22.398L51.1058,22.398Z" stroke-dasharray="278.10000000000002 278.10000000000002" stroke-dashoffset="278.10000000000002" transform="translate(520.307,203.825) translate(-67.2615,-64.699)" style="animation: roboto-l-animated_do 4.9s linear both;"/>
    <path id="roboto-o-animated" fill="none" stroke="#f7fff7" stroke-linecap="round" stroke-linejoin="round" d="M28.6217,46.9783C28.6217,41.8324,29.5491,37.3027,31.4041,33.3893C33.2591,29.4759,35.8799,26.4721,39.2667,24.3778C42.6535,22.2835,46.525,21.2363,50.8812,21.2363C55.2374,21.2363,59.1088,22.2835,62.4956,24.3778C65.8825,26.4721,68.5033,29.4759,70.3583,33.3893C72.2132,37.3027,73.1404,41.8204,73.1404,46.9424L73.1404,49.2761L73.1404,49.2761C73.1404,54.4222,72.2312,58.9338,70.4121,62.8114C68.593,66.6888,65.9902,69.6807,62.6033,71.7871C59.2165,73.8934,55.3331,74.9463,50.953,74.9463C46.6207,74.9463,42.7553,73.9052,39.3565,71.8229C35.9577,69.7405,33.3249,66.7666,31.458,62.9011C29.591,59.0356,28.6456,54.5897,28.6217,49.5633ZM62.2264,46.9065C62.2264,41.4254,61.245,37.2608,59.2823,34.4125C57.3197,31.5642,54.5193,30.1401,50.8812,30.1401C47.267,30.1401,44.4786,31.5463,42.5159,34.3587C40.5532,37.171,39.56,41.2938,39.536,46.727L39.536,49.2761C39.536,54.6137,40.5173,58.7543,42.48,61.6984C44.4427,64.6424,47.267,66.1144,50.953,66.1144C54.5672,66.1144,57.3436,64.6962,59.2823,61.8599C61.2211,59.0236,62.2024,54.8889,62.2264,49.4556L62.2264,46.9065Z" stroke-dasharray="410.11000000000001 410.11000000000001" stroke-dashoffset="410.11000000000001" transform="translate(565.55,205.254) translate(-64.647,-64.6992)" style="animation: roboto-o-animated_do 4.9s linear both;"/>
    <path id="roboto-p-animated" fill="none" stroke="#f7fff7" stroke-linecap="round" stroke-linejoin="round" d="M44.9468,57.1845L44.9468,76.1084L33.8802,76.1084L33.8802,22.3984L54.833,22.3984C58.8662,22.3984,62.4136,23.1362,65.4754,24.6118C68.5372,26.0873,70.8918,28.1838,72.5396,30.9012C74.1873,33.6188,75.0111,36.7112,75.0111,40.1788C75.0111,45.4416,73.2097,49.5915,69.6069,52.6287C66.0041,55.6659,61.018,57.1845,54.6486,57.1845L44.9468,57.1845ZM44.9468,48.2205L54.833,48.2205C57.7595,48.2205,59.9913,47.5319,61.5283,46.1548C63.0653,44.7776,63.8338,42.8102,63.8338,40.2526C63.8338,37.6212,63.0592,35.4939,61.5099,33.8708C59.9605,32.2477,57.821,31.4115,55.0912,31.3624L44.9468,31.3624L44.9468,48.2205Z" stroke-dasharray="376.43000000000001 376.43000000000001" stroke-dashoffset="376.42999999999995" transform="translate(612.828,204.456) translate(-66.274,-64.6992)" style="animation: roboto-p-animated_do 4.9s linear both;"/>
    <path id="roboto-r-animated" fill="none" stroke="#f7fff7" stroke-linecap="round" stroke-linejoin="round" d="M54.17,56.4467L45.3536,56.4467L45.3536,76.1084L34.2869,76.1084L34.2869,22.3984L54.2437,22.3984C60.5886,22.3984,65.4825,23.8125,68.9254,26.6406C72.3684,29.4687,74.0898,33.465,74.0898,38.6294C74.0898,42.2938,73.2968,45.3493,71.7105,47.7963C70.1243,50.2433,67.7204,52.1922,64.4988,53.6432L76.119,75.5923L76.119,76.1084L64.2406,76.1084L54.17,56.4467ZM45.3536,47.4828L54.2806,47.4828C57.0596,47.4828,59.2114,46.7757,60.7362,45.3617C62.2609,43.9476,63.0232,41.9986,63.0232,39.5148C63.0232,36.9817,62.3039,34.9898,60.8652,33.5388C59.4266,32.0879,57.2194,31.3624,54.2437,31.3624L45.3536,31.3624L45.3536,47.4828Z" stroke-dasharray="443.29000000000002 443.29000000000002" stroke-dashoffset="443.28999999999996" transform="translate(703.883,205.275) translate(-67.2327,-64.6992)" style="animation: roboto-r-animated_do 4.9s linear both;"/>
    <path id="roboto-c-animated-2" fill="none" stroke="#e5ba31" stroke-linecap="round" stroke-linejoin="round" d="M99.7427,78.8188C99.0842,87.9221,95.7238,95.0884,89.6615,100.318C83.5991,105.547,75.6097,108.162,65.6929,108.162C54.8465,108.162,46.3148,104.511,40.0975,97.2092C33.8802,89.9073,30.7716,79.8842,30.7716,67.1396L30.7716,61.9683C30.7716,53.8335,32.2048,46.6672,35.0714,40.4692C37.9379,34.2713,42.0343,29.5164,47.3607,26.2043C52.687,22.8923,58.8752,21.2363,65.9254,21.2363C75.6871,21.2363,83.5507,23.851,89.5162,29.0806C95.4817,34.3101,98.9293,41.6507,99.859,51.1025L82.4273,51.1025C82.0012,45.6406,80.4808,41.6798,77.866,39.22C75.2513,36.7602,71.2711,35.5303,65.9254,35.5303C60.1148,35.5303,55.7666,37.6124,52.8807,41.7766C49.9948,45.9409,48.5131,52.4002,48.4356,61.1548L48.4356,67.5464C48.4356,76.6884,49.8205,83.3704,52.5902,87.5928C55.3599,91.8151,59.7274,93.9263,65.6929,93.9263C71.0774,93.9263,75.0963,92.6964,77.7498,90.2366C80.4033,87.7768,81.9237,83.9709,82.3111,78.8188L99.7427,78.8188Z" stroke-dasharray="390.31 390.31" stroke-dashoffset="390.31" transform="translate(365.427,74.2069) translate(-65.3153,-64.6992)" style="animation: roboto-c-animated-2_do 4.9s linear both;"/>
    <path id="roboto-i-animated-2" fill="none" stroke="#e5ba31" stroke-linecap="round" stroke-linejoin="round" d="M69.7545,89.0647L56.018,89.0647L56.018,22.398L69.7545,22.398Z" stroke-dasharray="204.06999999999999 204.06999999999999" stroke-dashoffset="204.06999999999999" transform="translate(633.1,95.0478) scale(0.9,0.9) translate(-64.734,-64.699)" style="animation: roboto-i-animated-2_do 4.9s linear both;"/>
    <path id="roboto-y-animated" fill="none" stroke="#e5ba31" stroke-linecap="round" stroke-linejoin="round" d="M54.0021,73.6174L66.4883,46.584L80.005,46.584L60.3069,84.8257L60.3069,106.584L47.7384,106.584L47.7384,84.8257L28.041,46.584L41.5981,46.584Z" stroke-dasharray="322.5 322.5" stroke-dashoffset="322.5" transform="translate(440.216,75.7847) translate(-64.6765,-64.699)" style="animation: roboto-y-animated_do 4.9s linear both;"/>
    <path id="roboto-n-animated" fill="none" stroke="#e5ba31" stroke-linecap="round" stroke-linejoin="round" d="M79.0393,82.398L66.6772,82.398L42.6111,42.9202L42.6111,82.398L30.249,82.398L30.249,22.398L42.6111,22.398L66.7184,61.9588L66.7184,22.398L79.0393,22.398Z" stroke-dasharray="480.83999999999997 480.83999999999997" stroke-dashoffset="480.84000000000003" transform="translate(494.773,99.9707) translate(-64.647,-64.699)" style="animation: roboto-n-animated_do 4.9s linear both;"/>
    <path id="roboto-t-animated" fill="none" stroke="#e5ba31" stroke-linecap="round" stroke-linejoin="round" d="M48.3515,32.4119L30.22,32.4119L30.22,22.398L79.0933,22.398L79.0933,32.4119L60.7143,32.4119L60.7143,82.398L48.3515,82.398Z" stroke-dasharray="307.02999999999997 307.02999999999997" stroke-dashoffset="307.02999999999997" transform="translate(548.109,99.9707) translate(-64.6765,-64.699)" style="animation: roboto-t-animated_do 4.9s linear both;"/>
    <path id="roboto-a-animated" fill="none" stroke="#e5ba31" stroke-linecap="round" stroke-linejoin="round" d="M65.0195,70.0358L43.3437,70.0358L39.2228,82.3984L26.0772,82.3984L48.4124,22.3984L59.8684,22.3984L82.3271,82.3984L69.1816,82.3984L65.0195,70.0358ZM46.6816,60.022L61.6816,60.022L54.1404,37.5632L46.6816,60.022Z" stroke-dasharray="389.08999999999997 389.08999999999997" stroke-dashoffset="389.08999999999997" transform="translate(683.447,98.9705) translate(-65.7342,-64.6992)" style="animation: roboto-a-animated_do 4.9s linear both;"/>
    <path id="roboto-a-animated-2" fill="none" stroke="#f7fff7" stroke-linecap="round" stroke-linejoin="round" d="M68.2063,73.9341L44.7567,73.9341L40.2985,87.3084L26.0772,87.3084L50.2402,22.3984L62.6336,22.3984L86.9302,87.3084L72.709,87.3084L68.2063,73.9341ZM48.3677,63.1009L64.5952,63.1009L56.4369,38.8042L48.3677,63.1009Z" stroke-dasharray="389.08999999999997 389.08999999999997" stroke-dashoffset="389.08999999999997" transform="translate(75.8873,194.933) translate(-65.7342,-64.6992)" style="animation: roboto-a-animated-2_do 4.9s linear both;"/>
    <path id="roboto-h-animated" fill="none" stroke="#e5ba31" stroke-linecap="round" stroke-linejoin="round" d="M79.0522,82.398L66.6894,82.398L66.6894,56.6837L42.5821,56.6837L42.5821,82.398L30.22,82.398L30.22,22.398L42.5821,22.398L42.5821,46.7116L66.6894,46.7116L66.6894,22.398L79.0522,22.398Z" stroke-dasharray="448 448" stroke-dashoffset="448" transform="translate(601.878,99.9707) translate(-64.6475,-64.699)" style="animation: roboto-h-animated_do 4.9s linear both;"/>
</svg>
